# xmcd
#
# Track frame offsets:
#	150
#	12732
#	25047
#	38422
#	51812
#	65118
#	77081
#	89385
#	101164
#	114128
#	127694
#	140492
#	152994
#	166689
#	179030
#	191396
#	203738
#	215474
#	226983
#	240210
#	252384
#	265055
#	278285
#	290063
#	303668
#
# Disc length: 4225 seconds
#
# Revision: 3
# Processed by: cddbd v1.5.2PL0 Copyright (c) Steve Scherf et al.
# Submitted via: audiograbber 1.83.01
#
DISCID=54107f19
DTITLE=Johnny Bond - Johnny Bond and His Red River Valley Boys
DYEAR=2001
DGENRE=Country
TTITLE0=I"ll Step Aside
TTITLE1=Divorce Me C.O.D.
TTITLE2=Rainbow At Midnight
TTITLE3=So Round, So Firm, So Fully Packed
TTITLE4=Don't Look Now
TTITLE5=The Daughter Of Jole Blon'
TTITLE6=Blind Alley
TTITLE7=It's A Sin
TTITLE8=Smoke, Smoke, Smoke That Cigarette
TTITLE9=Fat Gal
TTITLE10=I Like My Chicken Fryin' Size
TTITLE11=Put Me To Bed
TTITLE12=Sad, Sad And Blue
TTITLE13=That's Right
TTITLE14=Cimarron
TTITLE15=Oklahoma Waltz
TTITLE16='Till The End Of The World
TTITLE17=Cherokee Waltz
TTITLE18=Love Song In 32 Bars
TTITLE19=Tennessee, Kentucky And Alabam'
TTITLE20=Cream Of Kentucky
TTITLE21=Mean Mama Boogie
TTITLE22=Barrel House Bessie
TTITLE23=Steppin' Out
TTITLE24=Set 'Em Up, Joe
EXTD=
EXTT0=
EXTT1=
EXTT2=with Jack Rivers - 2nd Vocal
EXTT3=
EXTT4=with Dick Reinhart - 2nd Vocal
EXTT5=
EXTT6=
EXTT7=
EXTT8=
EXTT9=
EXTT10=
EXTT11=
EXTT12=
EXTT13=
EXTT14=with Dick Reinhart - 2nd Vocal
EXTT15=with Dick Reinhart - 2nd Vocal
EXTT16=
EXTT17=
EXTT18=
EXTT19=
EXTT20=
EXTT21=
EXTT22=
EXTT23=
EXTT24=
PLAYORDER=
